<mxfile host="app.diagrams.net" agent="Mozilla/5.0 (Windows NT 10.0; Win64; x64; rv:143.0) Gecko/20100101 Firefox/143.0" version="28.2.5">
  <diagram name="Page-1" id="cQcqzcQhNQPXkIB9bYk4">
    <mxGraphModel dx="750" dy="1560" grid="1" gridSize="10" guides="1" tooltips="1" connect="1" arrows="1" fold="1" page="1" pageScale="1" pageWidth="1169" pageHeight="827" math="0" shadow="0">
      <root>
        <mxCell id="0" />
        <mxCell id="1" parent="0" />
        <mxCell id="ehiFXzKkCXup3ZorTqpT-1" value="&lt;font style=&quot;font-size: 28px;&quot;&gt;SPAD&lt;/font&gt;" style="rounded=0;whiteSpace=wrap;html=1;" vertex="1" parent="1">
          <mxGeometry x="920" y="120" width="110" height="510" as="geometry" />
        </mxCell>
        <mxCell id="ehiFXzKkCXup3ZorTqpT-2" value="" style="rounded=0;whiteSpace=wrap;html=1;" vertex="1" parent="1">
          <mxGeometry x="750" y="110" width="110" height="510" as="geometry" />
        </mxCell>
        <mxCell id="ehiFXzKkCXup3ZorTqpT-3" style="edgeStyle=none;curved=1;rounded=0;orthogonalLoop=1;jettySize=auto;html=1;entryX=0;entryY=0.5;entryDx=0;entryDy=0;fontSize=12;startSize=8;endSize=8;" edge="1" parent="1" target="ehiFXzKkCXup3ZorTqpT-1">
          <mxGeometry relative="1" as="geometry">
            <mxPoint x="860" y="375" as="sourcePoint" />
          </mxGeometry>
        </mxCell>
        <mxCell id="ehiFXzKkCXup3ZorTqpT-4" value="Signal Not Seen" style="ellipse;whiteSpace=wrap;html=1;" vertex="1" parent="1">
          <mxGeometry x="750" y="140" width="110" height="60" as="geometry" />
        </mxCell>
        <mxCell id="ehiFXzKkCXup3ZorTqpT-6" value="Signal Disregarded" style="ellipse;whiteSpace=wrap;html=1;" vertex="1" parent="1">
          <mxGeometry x="750" y="240" width="110" height="60" as="geometry" />
        </mxCell>
        <mxCell id="ehiFXzKkCXup3ZorTqpT-7" value="Signal Misinterpreted" style="ellipse;whiteSpace=wrap;html=1;" vertex="1" parent="1">
          <mxGeometry x="750" y="335" width="110" height="60" as="geometry" />
        </mxCell>
        <mxCell id="ehiFXzKkCXup3ZorTqpT-8" value="Signal Error" style="ellipse;whiteSpace=wrap;html=1;" vertex="1" parent="1">
          <mxGeometry x="750" y="440" width="110" height="60" as="geometry" />
        </mxCell>
        <mxCell id="ehiFXzKkCXup3ZorTqpT-9" value="" style="rounded=0;whiteSpace=wrap;html=1;" vertex="1" parent="1">
          <mxGeometry x="580" y="110" width="110" height="510" as="geometry" />
        </mxCell>
        <mxCell id="ehiFXzKkCXup3ZorTqpT-11" value="Signal Blocked" style="ellipse;whiteSpace=wrap;html=1;" vertex="1" parent="1">
          <mxGeometry x="580" y="120" width="110" height="50" as="geometry" />
        </mxCell>
        <mxCell id="ehiFXzKkCXup3ZorTqpT-12" value="Driver Sight Compromised" style="ellipse;whiteSpace=wrap;html=1;" vertex="1" parent="1">
          <mxGeometry x="580" y="530" width="110" height="50" as="geometry" />
        </mxCell>
        <mxCell id="ehiFXzKkCXup3ZorTqpT-13" value="Misinterpretation" style="ellipse;whiteSpace=wrap;html=1;" vertex="1" parent="1">
          <mxGeometry x="580" y="190" width="110" height="50" as="geometry" />
        </mxCell>
        <mxCell id="ehiFXzKkCXup3ZorTqpT-14" value="Conflicting information" style="ellipse;whiteSpace=wrap;html=1;" vertex="1" parent="1">
          <mxGeometry x="580" y="270" width="110" height="50" as="geometry" />
        </mxCell>
        <mxCell id="ehiFXzKkCXup3ZorTqpT-18" value="" style="edgeStyle=none;curved=1;rounded=0;orthogonalLoop=1;jettySize=auto;html=1;fontSize=12;startSize=8;endSize=8;entryX=-0.023;entryY=0.518;entryDx=0;entryDy=0;entryPerimeter=0;" edge="1" parent="1" source="ehiFXzKkCXup3ZorTqpT-15" target="ehiFXzKkCXup3ZorTqpT-2">
          <mxGeometry relative="1" as="geometry" />
        </mxCell>
        <mxCell id="ehiFXzKkCXup3ZorTqpT-15" value="Info cannot be verified" style="ellipse;whiteSpace=wrap;html=1;" vertex="1" parent="1">
          <mxGeometry x="580" y="350" width="110" height="50" as="geometry" />
        </mxCell>
        <mxCell id="ehiFXzKkCXup3ZorTqpT-16" value="Braking problem" style="ellipse;whiteSpace=wrap;html=1;" vertex="1" parent="1">
          <mxGeometry x="580" y="420" width="110" height="50" as="geometry" />
        </mxCell>
        <mxCell id="ehiFXzKkCXup3ZorTqpT-17" value="Unreported ego error" style="ellipse;whiteSpace=wrap;html=1;" vertex="1" parent="1">
          <mxGeometry x="580" y="480" width="110" height="50" as="geometry" />
        </mxCell>
        <mxCell id="ehiFXzKkCXup3ZorTqpT-20" value="" style="edgeStyle=none;curved=1;rounded=0;orthogonalLoop=1;jettySize=auto;html=1;fontSize=12;startSize=8;endSize=8;" edge="1" parent="1" source="ehiFXzKkCXup3ZorTqpT-19" target="ehiFXzKkCXup3ZorTqpT-15">
          <mxGeometry relative="1" as="geometry" />
        </mxCell>
        <mxCell id="ehiFXzKkCXup3ZorTqpT-19" value="" style="rounded=0;whiteSpace=wrap;html=1;" vertex="1" parent="1">
          <mxGeometry x="380" y="119" width="110" height="510" as="geometry" />
        </mxCell>
        <mxCell id="ehiFXzKkCXup3ZorTqpT-21" value="System programmed wrong" style="ellipse;whiteSpace=wrap;html=1;" vertex="1" parent="1">
          <mxGeometry x="380" y="130" width="110" height="50" as="geometry" />
        </mxCell>
        <mxCell id="ehiFXzKkCXup3ZorTqpT-22" value="Signal engineer skipped breakfast" style="ellipse;whiteSpace=wrap;html=1;" vertex="1" parent="1">
          <mxGeometry x="380" y="180" width="110" height="50" as="geometry" />
        </mxCell>
        <mxCell id="ehiFXzKkCXup3ZorTqpT-23" value="Weather report was wrong" style="ellipse;whiteSpace=wrap;html=1;" vertex="1" parent="1">
          <mxGeometry x="380" y="236" width="110" height="50" as="geometry" />
        </mxCell>
        <mxCell id="ehiFXzKkCXup3ZorTqpT-24" value="CV metrics misaligned" style="ellipse;whiteSpace=wrap;html=1;" vertex="1" parent="1">
          <mxGeometry x="380" y="290" width="110" height="50" as="geometry" />
        </mxCell>
        <mxCell id="ehiFXzKkCXup3ZorTqpT-25" value="Cow somehow got on track" style="ellipse;whiteSpace=wrap;html=1;" vertex="1" parent="1">
          <mxGeometry x="380" y="345" width="110" height="50" as="geometry" />
        </mxCell>
        <mxCell id="ehiFXzKkCXup3ZorTqpT-26" value="System did not get cleaned" style="ellipse;whiteSpace=wrap;html=1;" vertex="1" parent="1">
          <mxGeometry x="380" y="395" width="110" height="50" as="geometry" />
        </mxCell>
        <mxCell id="ehiFXzKkCXup3ZorTqpT-27" value="Cab is old" style="ellipse;whiteSpace=wrap;html=1;" vertex="1" parent="1">
          <mxGeometry x="380" y="450" width="110" height="50" as="geometry" />
        </mxCell>
        <mxCell id="ehiFXzKkCXup3ZorTqpT-29" value="Overgrowth of flora" style="ellipse;whiteSpace=wrap;html=1;" vertex="1" parent="1">
          <mxGeometry x="380" y="500" width="110" height="50" as="geometry" />
        </mxCell>
        <mxCell id="ehiFXzKkCXup3ZorTqpT-30" value="Any number of reasons" style="ellipse;whiteSpace=wrap;html=1;" vertex="1" parent="1">
          <mxGeometry x="380" y="560" width="110" height="50" as="geometry" />
        </mxCell>
      </root>
    </mxGraphModel>
  </diagram>
</mxfile>
